<svg xmlns="http://www.w3.org/2000/svg" width="131" height="131" viewBox="0 0 131 131"><defs><style>.a{fill:#8e9090;}.b{opacity:0.697;}.c,.e{fill:none;}.c{stroke:#fcfeff;stroke-width:2px;}.d{stroke:none;}</style></defs><g transform="translate(-910 -365)"><circle class="a" cx="65.5" cy="65.5" r="65.5" transform="translate(910 365)"/><g class="b" transform="translate(937 392.286)"><g class="c" transform="translate(18.654)"><ellipse class="d" cx="20.174" cy="20.174" rx="20.174" ry="20.174"/><ellipse class="e" cx="20.174" cy="20.174" rx="19.174" ry="19.174"/></g><path class="c" d="M0,29.85V18.44l.947-.324c-.644-.07-.975-.126-.945-.163C8.975,6.831,22.754,0,38.669,0A50.373,50.373,0,0,1,77.647,18.283a.381.381,0,0,1,.083.155l.006,0v.054s0,0,0,0V29.85Z" transform="translate(0 46.299)"/></g></g></svg>