<svg xmlns="http://www.w3.org/2000/svg" xmlns:xlink="http://www.w3.org/1999/xlink" width="1996" height="960" viewBox="0 0 1996 960"><defs><style>.a{fill:url(#a);}.b{clip-path:url(#b);}.c{opacity:0.201;}.d,.g{opacity:0.7;}.d{fill:url(#c);}.e,.h,.k{fill:none;}.e{stroke:#a3a0fb;}.e,.f,.h,.i{stroke-width:2px;}.f,.i{fill:#fff;}.f{stroke:#a4a1fb;}.g{fill:url(#e);}.h{stroke:#54d8ff;}.i{stroke:#55d8fe;}.j{stroke:none;}</style><linearGradient id="a" y1="1" x2="1" gradientUnits="objectBoundingBox"><stop offset="0" stop-color="#5c6ccd"/><stop offset="1" stop-color="#5753b5"/></linearGradient><clipPath id="b"><rect class="a" width="1996" height="960"/></clipPath><linearGradient id="c" x1="0.5" x2="0.5" y2="1" gradientUnits="objectBoundingBox"><stop offset="0" stop-color="#a7a7ff"/><stop offset="1" stop-color="#fff" stop-opacity="0"/></linearGradient><linearGradient id="e" x1="0.5" x2="0.5" y2="1" gradientUnits="objectBoundingBox"><stop offset="0" stop-color="#54d8ff"/><stop offset="1" stop-color="#fff" stop-opacity="0"/></linearGradient></defs><g class="b"><g class="c" transform="translate(-1368.091 284.134)"><path class="d" d="M330,764.877V546.706s769.831,143.1,1384.929,152.089c665.114-8.71,780.285-69.952,1298.36-152.089,442.718-68.461,884.224-87.251,1307.992-82.413s791.063,78.793,1291.632,86.372c883.06-30.534,1333.6-184.911,1393.26-249.388v544.74L330,846.259Z" transform="translate(-330 -298.733)"/><path class="e" d="M313,493.785S1077.861,640.3,1682.615,643.452s837.041-75.606,1300.243-149.472,903.549-86.472,1308.956-83.989,799.517,79.889,1297.64,84,1303.982-133.8,1393.593-248.748" transform="translate(-306.873 -245.24)"/><g class="f" transform="translate(2646.638 237.499)"><circle class="j" cx="12.259" cy="12.259" r="12.259"/><circle class="k" cx="12.259" cy="12.259" r="11.259"/></g><g class="f" transform="translate(1762.056 373.225)"><circle class="j" cx="12.259" cy="12.259" r="12.259"/><circle class="k" cx="12.259" cy="12.259" r="11.259"/></g></g><g class="c" transform="translate(-1685.002 517.134)"><path class="d" d="M330,764.877V546.706s769.831,143.1,1384.929,152.089c665.114-8.71,780.285-69.952,1298.36-152.089,442.718-68.461,884.224-87.251,1307.992-82.413s791.063,78.793,1291.632,86.372c883.06-30.534,1333.6-184.911,1393.26-249.388v544.74L330,846.259Z" transform="translate(-330 -298.733)"/><path class="e" d="M313,493.785S1077.861,640.3,1682.615,643.452s837.041-75.606,1300.243-149.472,903.549-86.472,1308.956-83.989,799.517,79.889,1297.64,84,1303.982-133.8,1393.593-248.748" transform="translate(-306.873 -245.24)"/><g class="f" transform="translate(2646.638 237.499)"><circle class="j" cx="12.259" cy="12.259" r="12.259"/><circle class="k" cx="12.259" cy="12.259" r="11.259"/></g></g><g class="c" transform="translate(-1757.486 306.435)"><path class="g" d="M330,687.576V354.422s751.372,331.226,1368.591,343.691c688.664-2.807,694.308-171.952,1299.465-264.548,506.619-72.706,893.2,125.622,1316.963,130.459S5031.246,428.1,5609.393,418.319c749.057,14.727,1350.121,202.792,1396.762,212.9V768.716L330,768.958Z" transform="translate(-325.862 -354.422)"/><path class="h" d="M312.953,279.164S1087.71,616.493,1693.215,619.648s812.564-198.754,1298.737-266.824,907.929,129.84,1313.838,132.324S5100.329,336.462,5599.067,340.57s1068.957,118.46,1384.2,208.663" transform="translate(-312.953 -276.342)"/><g class="i" transform="translate(5241.024 51.51)"><circle class="j" cx="12.259" cy="12.259" r="12.259"/><circle class="k" cx="12.259" cy="12.259" r="11.259"/></g><g class="i" transform="translate(2847.566 50.683)"><circle class="j" cx="12.259" cy="12.259" r="12.259"/><circle class="k" cx="12.259" cy="12.259" r="11.259"/></g></g><g class="c" transform="translate(-2512.894 416.772)"><path class="g" d="M330,687.576V354.422s751.372,331.226,1368.591,343.691c688.664-2.807,694.308-171.952,1299.465-264.548,506.619-72.706,893.2,125.622,1316.963,130.459S5031.246,428.1,5609.393,418.319c749.057,14.727,1350.121,202.792,1396.762,212.9V768.716L330,768.958Z" transform="translate(-328.357 -354.422)"/><path class="h" d="M312.953,279.164S1087.71,616.493,1693.215,619.648s812.564-198.754,1298.737-266.824,907.929,129.84,1313.838,132.324S5100.329,336.462,5599.067,340.57s1068.957,118.46,1384.2,208.663" transform="translate(-312.953 -276.342)"/><g class="i" transform="translate(4209.713 182.327)"><circle class="j" cx="12.259" cy="12.259" r="12.259"/><circle class="k" cx="12.259" cy="12.259" r="11.259"/></g><g class="i" transform="translate(2642.105 63.782)"><circle class="j" cx="12.259" cy="12.259" r="12.259"/><circle class="k" cx="12.259" cy="12.259" r="11.259"/></g></g></g></svg>